<?xml version="1.0" encoding="UTF-8" standalone="no"?>
<svg width="34px" height="34px" viewBox="0 0 34 34" version="1.1" xmlns="http://www.w3.org/2000/svg" xmlns:xlink="http://www.w3.org/1999/xlink" xmlns:sketch="http://www.bohemiancoding.com/sketch/ns">
    <!-- Generator: Sketch 3.3.3 (12081) - http://www.bohemiancoding.com/sketch -->
    <title>delete_3</title>
    <desc>Created with Sketch.</desc>
    <defs></defs>
    <g id="Page-1" stroke="none" stroke-width="1" fill="none" fill-rule="evenodd" sketch:type="MSPage">
        <g id="delete_3" sketch:type="MSArtboardGroup">
            <g id="Oval-168-+-Imported-Layers-Copy" sketch:type="MSLayerGroup">
                <g sketch:type="MSShapeGroup">
                    <circle id="Oval-168" fill="#4583B0" cx="17" cy="17" r="17"></circle>
                    <g id="Imported-Layers-Copy" transform="translate(11.000000, 10.000000)" fill="#FFFFFF">
                        <path d="M12.44264,2.19688 L8.83904,2.19688 L8.83904,0.09352 L3.91272,0.09352 L3.91272,2.19688 L0.30968,2.19688 L0.30968,3.31688 L1.38656,3.31688 L1.38656,13.98656 L11.49008,13.98656 L11.49008,3.31688 L12.44264,3.31688 L12.44264,2.19688 L12.44264,2.19688 Z M5.03272,1.21352 L7.71904,1.21352 L7.71904,2.19688 L5.03272,2.19688 L5.03272,1.21352 Z M2.50656,3.31688 L10.37008,3.31688 L10.37008,12.86656 L2.50656,12.86656 L2.50656,3.31688 Z" id="Fill-1"></path>
                        <path d="M3.388,4.36352 L4.508,4.36352 L4.508,11.85912 L3.388,11.85912 L3.388,4.36352 Z" id="Fill-2"></path>
                        <path d="M8.2292,4.36352 L9.3492,4.36352 L9.3492,11.85912 L8.2292,11.85912 L8.2292,4.36352 Z" id="Fill-3"></path>
                        <path d="M5.81616,4.36352 L6.93616,4.36352 L6.93616,11.85912 L5.81616,11.85912 L5.81616,4.36352 Z" id="Fill-4"></path>
                    </g>
                </g>
            </g>
        </g>
    </g>
</svg>