<?xml version="1.0" encoding="utf-8"?>
<!-- Generator: Adobe Illustrator 18.0.0, SVG Export Plug-In . SVG Version: 6.00 Build 0)  -->
<!DOCTYPE svg PUBLIC "-//W3C//DTD SVG 1.1//EN" "http://www.w3.org/Graphics/SVG/1.1/DTD/svg11.dtd">
<svg version="1.1" id="Layer_1" xmlns="http://www.w3.org/2000/svg" xmlns:xlink="http://www.w3.org/1999/xlink" x="0px" y="0px"
	 viewBox="0 0 125.4 78.4" enable-background="new 0 0 125.4 78.4" xml:space="preserve">
<g>
	<path fill="#F1F2F2" d="M125.4,74.2c0,2.3-1.9,4.2-4.2,4.2H4.2c-2.3,0-4.2-1.9-4.2-4.2v-70C0,1.9,1.9,0,4.2,0h117.1
		c2.3,0,4.2,1.9,4.2,4.2V74.2z"/>
	<path fill="#F58220" d="M34.5,78.4h86.8c2.3,0,4.2-1.9,4.2-4.2V44.9C117.1,50.1,85.7,68.3,34.5,78.4z"/>
	<g>
		
			<radialGradient id="SVGID_1_" cx="57.8215" cy="-446.8817" r="6.1806" gradientTransform="matrix(1 0 0 1 6.416 486.083)" gradientUnits="userSpaceOnUse">
			<stop  offset="5.618000e-03" style="stop-color:#FFEEE0"/>
			<stop  offset="0.1096" style="stop-color:#FEE9D7"/>
			<stop  offset="0.2793" style="stop-color:#FDDBBF"/>
			<stop  offset="0.4935" style="stop-color:#FBC597"/>
			<stop  offset="0.744" style="stop-color:#F8A560"/>
			<stop  offset="1" style="stop-color:#F48120"/>
		</radialGradient>
		<path fill="url(#SVGID_1_)" d="M64.2,33.1c-3.5,0-6.3,2.7-6.3,6c0,3.5,2.7,6.2,6.3,6.2c3.5,0,6.2-2.7,6.2-6.1
			C70.5,35.8,67.8,33.1,64.2,33.1z"/>
		<path fill="#001722" d="M28.7,33.3h-3.4V45h3.3c1.8,0,3.1-0.4,4.2-1.4c1.3-1.1,2.1-2.8,2.1-4.5C35,35.7,32.4,33.3,28.7,33.3z
			 M31.4,42.1c-0.7,0.7-1.7,0.9-3.1,0.9h-0.6v-7.8h0.6c1.5,0,2.4,0.3,3.1,0.9c0.8,0.7,1.3,1.8,1.3,2.9
			C32.6,40.3,32.2,41.4,31.4,42.1z"/>
		<rect x="36.1" y="33.3" fill="#001722" width="2.3" height="11.7"/>
		<path fill="#001722" d="M44,37.8c-1.4-0.5-1.8-0.8-1.8-1.5c0-0.7,0.7-1.3,1.7-1.3c0.7,0,1.2,0.3,1.8,0.9l1.2-1.6
			c-1-0.9-2.2-1.3-3.5-1.3c-2.1,0-3.7,1.4-3.7,3.4c0,1.6,0.7,2.4,2.9,3.2c0.9,0.3,1.4,0.5,1.6,0.7c0.5,0.3,0.7,0.7,0.7,1.2
			c0,1-0.8,1.7-1.8,1.7c-1.1,0-2-0.5-2.5-1.6l-1.5,1.4c1.1,1.5,2.3,2.2,4.1,2.2c2.4,0,4-1.6,4-3.9C47.3,39.6,46.6,38.8,44,37.8z"/>
		<path fill="#001722" d="M48.1,39.2c0,3.5,2.7,6.1,6.2,6.1c1,0,1.8-0.2,2.9-0.7v-2.7c-0.9,0.9-1.7,1.3-2.8,1.3
			c-2.3,0-3.9-1.7-3.9-4c0-2.2,1.7-4,3.8-4c1.1,0,1.9,0.4,2.9,1.3v-2.7c-1-0.5-1.8-0.7-2.8-0.7C50.8,33,48.1,35.8,48.1,39.2z"/>
		<polygon fill="#001722" points="75.7,41.2 72.5,33.3 70,33.3 75,45.3 76.2,45.3 81.3,33.3 78.8,33.3 		"/>
		<polygon fill="#001722" points="82.4,45 88.9,45 88.9,43.1 84.6,43.1 84.6,39.9 88.7,39.9 88.7,37.9 84.6,37.9 84.6,35.3 
			88.9,35.3 88.9,33.3 82.4,33.3 		"/>
		<path fill="#001722" d="M97.9,36.8c0-2.2-1.5-3.5-4.2-3.5h-3.4V45h2.3v-4.7H93l3.2,4.7h2.8l-3.7-4.9C97,39.8,97.9,38.6,97.9,36.8z
			 M93.3,38.7h-0.7v-3.6h0.7c1.4,0,2.2,0.6,2.2,1.7C95.6,38.1,94.8,38.7,93.3,38.7z"/>
		<path fill="#231F20" d="M99.5,34.2c0-0.2-0.1-0.3-0.4-0.3h-0.3v1h0.2v-0.4l0.3,0.4h0.3l-0.3-0.4C99.5,34.4,99.5,34.3,99.5,34.2z
			 M99.1,34.3L99.1,34.3l0-0.3h0c0.1,0,0.2,0,0.2,0.1C99.3,34.3,99.2,34.3,99.1,34.3z"/>
		<path fill="#231F20" d="M99.2,33.5c-0.5,0-0.9,0.4-0.9,0.9c0,0.5,0.4,0.9,0.9,0.9c0.5,0,0.9-0.4,0.9-0.9S99.7,33.5,99.2,33.5z
			 M99.2,35.1c-0.4,0-0.7-0.3-0.7-0.7c0-0.4,0.3-0.7,0.7-0.7c0.4,0,0.7,0.3,0.7,0.7C99.9,34.8,99.6,35.1,99.2,35.1z"/>
	</g>
</g>
</svg>
