<?xml version="1.0" encoding="UTF-8" standalone="no"?>
<svg width="347px" height="120px" viewBox="0 0 347 120" version="1.1" xmlns="http://www.w3.org/2000/svg" xmlns:xlink="http://www.w3.org/1999/xlink" xmlns:sketch="http://www.bohemiancoding.com/sketch/ns">
    <!-- Generator: Sketch 3.3.3 (12081) - http://www.bohemiancoding.com/sketch -->
    <title>gift_2</title>
    <desc>Created with Sketch.</desc>
    <defs>
        <path id="path-1" d="M0.322079772,0.39985755 L154.807692,0.39985755 L154.807692,120.057977 L0.322079772,120.057977"></path>
    </defs>
    <g id="Page-1" stroke="none" stroke-width="1" fill="none" fill-rule="evenodd" sketch:type="MSPage">
        <g id="gift_2" sketch:type="MSArtboardGroup">
            <g id="Imported-Layers" sketch:type="MSLayerGroup" transform="translate(-1.000000, 0.000000)">
                <path d="M0.864529915,0.698005698 L348.780484,0.698005698 L348.780484,119.760826 L0.864529915,119.760826 L0.864529915,0.698005698 Z" id="Fill-1" fill="#77B0C9" sketch:type="MSShapeGroup"></path>
                <path d="M0.322079772,0.39985755 L349.324929,0.39985755 L349.324929,120.057977 L0.322079772,120.057977 L0.322079772,0.39985755 Z M1.40897436,119.462678 L348.238034,119.462678 L348.238034,0.995156695 L1.40897436,0.995156695 L1.40897436,119.462678 Z" id="Fill-2" fill="#77B0C9" sketch:type="MSShapeGroup"></path>
                <g id="Group-6">
                    <mask id="mask-2" sketch:name="Clip 4" fill="white">
                        <use xlink:href="#path-1"></use>
                    </mask>
                    <g id="Clip-4"></g>
                    <path d="M145.220085,60.2478632 C145.220085,103.084473 110.494302,137.810256 67.6576923,137.810256 C24.8220798,137.810256 -9.9037037,103.084473 -9.9037037,60.2478632 C-9.9037037,17.4122507 24.8220798,-17.3135328 67.6576923,-17.3135328 C110.494302,-17.3135328 145.220085,17.4122507 145.220085,60.2478632" id="Fill-3" fill="#6DA7BC" sketch:type="MSShapeGroup" mask="url(#mask-2)"></path>
                    <path d="M128.384188,60.2478632 C128.384188,93.787037 101.196866,120.974359 67.6576923,120.974359 C34.1195157,120.974359 6.93219373,93.787037 6.93219373,60.2478632 C6.93219373,26.7096866 34.1195157,-0.477635328 67.6576923,-0.477635328 C101.196866,-0.477635328 128.384188,26.7096866 128.384188,60.2478632" id="Fill-5" fill="#5D9AAF" sketch:type="MSShapeGroup" mask="url(#mask-2)"></path>
                </g>
                <path d="M102.517094,60.2478632 C102.517094,79.5008547 86.9096866,95.107265 67.6576923,95.107265 C48.4066952,95.107265 32.7992877,79.5008547 32.7992877,60.2478632 C32.7992877,40.9968661 48.4066952,25.3894587 67.6576923,25.3894587 C86.9096866,25.3894587 102.517094,40.9968661 102.517094,60.2478632" id="Fill-7" fill="#4B8899" sketch:type="MSShapeGroup"></path>
                <path d="M50.8975783,59.077208 L83.795584,59.077208 L83.795584,81.431339 L50.8975783,81.431339 L50.8975783,59.077208 Z" id="Fill-8" fill="#FFFFFF" sketch:type="MSShapeGroup"></path>
                <path d="M61.0934473,59.757265 L83.795584,62.0277778 L83.795584,59.077208 L50.8975783,59.077208 L50.8975783,60.5928775 L61.0934473,59.757265" id="Fill-9" fill="#CCC0C0" sketch:type="MSShapeGroup"></path>
                <path d="M86.1787749,60.9099715 L50.0360399,57.8527066 L50.6223647,50.9175214 L86.7660969,53.9757835 L86.1787749,60.9099715" id="Fill-10" fill="#FFFFFF" sketch:type="MSShapeGroup"></path>
                <path d="M70.7099715,53.0703704 L56.9851852,47.639886 L56.0807692,43.4169516 L71.4648148,50.657265" id="Fill-11" fill="#BA4D2A" sketch:type="MSShapeGroup"></path>
                <path d="M56.0807692,43.4169516 L60.3037037,38.288604 L62.2641026,40.0994302 L58.9465812,44.7740741" id="Fill-12" fill="#A34228" sketch:type="MSShapeGroup"></path>
                <path d="M60.3037037,38.288604 L67.0903134,40.5511396 L57.8905983,41.4565527" id="Fill-13" fill="#BA4D2A" sketch:type="MSShapeGroup"></path>
                <path d="M67.9598291,40.8413105 L75.8034188,53.9628205 L73.2387464,54.1143875 L65.5467236,40.6907407" id="Fill-14" fill="#BA4D2A" sketch:type="MSShapeGroup"></path>
                <path d="M73.4132479,53.4861823 L84.8635328,52.6316239 L86.8319088,49.3539886 L73.6346154,51.2735043" id="Fill-15" fill="#BA4D2A" sketch:type="MSShapeGroup"></path>
                <path d="M86.8319088,49.3539886 L85.4428775,43.9504274 L83.4834758,44.9346154 L84.3709402,49.7189459" id="Fill-16" fill="#BA4D2A" sketch:type="MSShapeGroup"></path>
                <path d="M85.4428775,43.9504274 L79.9136752,44.0202279 L86.1628205,47.2360399" id="Fill-17" fill="#BA4D2A" sketch:type="MSShapeGroup"></path>
                <path d="M79.205698,44.0301994 L69.5173789,52.8679487 L71.2903134,53.6796296 L80.9656695,44.5497151" id="Fill-18" fill="#BA4D2A" sketch:type="MSShapeGroup"></path>
                <path d="M68.4005698,51.7122507 L65.8698006,59.6396011 L65.0262108,82.1692308 L69.8773504,82.1692308 L70.5095442,59.4311966 L72.6185185,52.7562678" id="Fill-19" fill="#BA4D2A" sketch:type="MSShapeGroup"></path>
                <path d="M31.0363248,11.8132479 L33.8871795,17.5917379 L40.2639601,18.5180912 L35.6501425,23.0152422 L36.7400285,29.3660969 L31.0363248,26.3676638 L25.3326211,29.3660969 L26.4225071,23.0152422 L21.8086895,18.5180912 L28.1844729,17.5917379 L31.0363248,11.8132479" id="Fill-20" fill="#EBCA78" sketch:type="MSShapeGroup"></path>
                <path d="M156.019231,20.5034188 L159.732621,21.5584046 L162.706125,19.0964387 L162.851709,22.954416 L166.112393,25.02151 L162.487749,26.3517094 L161.529487,30.0920228 L159.144302,27.055698 L155.291311,27.3 L157.441168,24.0931624 L156.019231,20.5034188" id="Fill-21" fill="#FFFFFF" sketch:type="MSShapeGroup"></path>
                <path d="M271.205128,26.2878917 L273.451709,30.839886 L278.476353,31.5698006 L274.840741,35.1146724 L275.698291,40.1183761 L271.205128,37.7561254 L266.710969,40.1183761 L267.569516,35.1146724 L263.933903,31.5698006 L268.95755,30.839886 L271.205128,26.2878917" id="Fill-22" fill="#EBCA78" sketch:type="MSShapeGroup"></path>
                <path d="M211.968376,95.318661 L210.183476,101.372365 L214.159117,106.276353 L207.849145,106.44886 L204.41396,111.744729 L202.3,105.797721 L196.201425,104.167379 L201.205128,100.318376 L200.870085,94.0153846 L206.077208,97.584188 L211.968376,95.318661" id="Fill-23" fill="#FFFFFF" sketch:type="MSShapeGroup"></path>
                <path d="M327.831339,84.0997151 L326.032479,88.8810541 L328.952137,93.0730769 L323.847721,92.8407407 L320.762536,96.9121083 L319.407407,91.9861823 L314.581197,90.3099715 L318.848006,87.4990028 L318.949715,82.3915954 L322.942308,85.5804843 L327.831339,84.0997151" id="Fill-24" fill="#EBCA78" sketch:type="MSShapeGroup"></path>
                <path d="M328.832479,6.09957265 L330.157692,8.78589744 L333.123219,9.21666667 L330.978348,11.3076923 L331.483903,14.2612536 L328.832479,12.8672365 L326.180057,14.2612536 L326.68661,11.3076923 L324.541738,9.21666667 L327.506268,8.78589744 L328.832479,6.09957265" id="Fill-25" fill="#EBCA78" sketch:type="MSShapeGroup"></path>
                <path d="M126.108689,64.7709402 C126.108689,63.2782051 126.244302,61.7306268 126.515527,60.1311966 C126.784758,58.5307692 127.241453,56.8974359 127.881624,55.2311966 C128.520798,53.5659544 129.296581,52.0801994 130.207977,50.7759259 C131.118376,49.4706553 132.276068,48.4037037 133.67906,47.5750712 C135.082051,46.7464387 136.62963,46.3316239 138.319801,46.3316239 C140.635185,46.3316239 142.39416,47.1143875 143.599715,48.6789174 C144.807265,50.2434473 145.409544,52.2616809 145.409544,54.7356125 C145.409544,55.3797721 145.286895,55.9292023 145.040598,56.3839031 C144.795299,56.838604 144.384473,57.0659544 143.810114,57.0659544 C142.644444,57.0659544 141.905556,56.4048433 141.594444,55.0826211 C141.495726,54.7525641 141.39302,54.3058405 141.286325,53.7434473 C141.17963,53.1820513 141.076923,52.711396 140.979202,52.3304843 C140.880484,51.9505698 140.744872,51.5626781 140.572365,51.165812 C140.400855,50.7689459 140.149573,50.4678063 139.82151,50.2603989 C139.493447,50.0549858 139.090598,49.9502849 138.614957,49.9502849 C137.499145,49.9502849 136.456125,50.2923077 135.487892,50.9763533 C134.519658,51.6594017 133.710969,52.5249288 133.063818,53.5709402 C132.414672,54.6159544 131.856268,55.7776353 131.389601,57.0539886 C130.921937,58.3303419 130.580912,59.5578348 130.367521,60.7354701 C130.154131,61.9131054 130.047436,62.9710826 130.047436,63.9094017 C130.047436,65.0750712 130.191026,66.2317664 130.479202,67.3804843 C130.765385,68.5301994 131.192165,69.617094 131.758547,70.6431624 C132.324929,71.6692308 133.104701,72.5018519 134.097863,73.1420228 C135.090028,73.7821937 136.226781,74.1022792 137.50812,74.1022792 C138.60698,74.1022792 139.763675,73.7532764 140.979202,73.0552707 C142.192735,72.3582621 142.8,71.5665242 142.8,70.680057 L142.50584,66.7413105 C139.633048,67.3804843 137.794302,67.701567 136.990598,67.701567 C135.283476,67.701567 134.429915,67.2009972 134.429915,66.1988604 C134.429915,65.4440171 134.651282,64.8537037 135.094017,64.4269231 C135.535755,64.0001425 136.35641,63.680057 137.553989,63.4666667 C140.340028,62.9411681 143.119088,62.4735043 145.890171,62.0636752 C148.548575,61.685755 150.352422,61.4972934 151.304701,61.4972934 L151.403419,61.4972934 C151.616809,61.4972934 151.789316,61.5052707 151.92094,61.5222222 C152.052564,61.5381766 152.220085,61.5710826 152.425499,61.619943 C152.629915,61.6698006 152.797436,61.7725071 152.930057,61.9280627 C153.060684,62.0846154 153.159402,62.2770655 153.225214,62.5064103 C153.241168,62.5562678 153.249145,62.6051282 153.249145,62.6539886 C153.249145,62.9172365 153.118519,63.1465812 152.856268,63.3440171 C152.54416,63.5893162 152.191168,63.7787749 151.797293,63.9094017 C151.353561,64.1397436 150.731339,64.4019943 149.926638,64.697151 C149.121937,64.9933048 148.432906,65.2316239 147.858547,65.4111111 L146.97208,65.6823362 C147.036895,66.8150997 147.269231,69.141453 147.667094,72.661396 C148.065954,76.1823362 148.266382,78.730057 148.266382,80.3055556 C148.266382,81.5041311 147.664103,82.1762108 146.459544,82.3247863 C146.345869,82.3407407 146.240171,82.3497151 146.14245,82.3497151 C145.766524,82.3497151 145.480342,82.2839031 145.283903,82.1522792 C145.02265,81.9717949 144.744444,81.6108262 144.450285,81.0693732 C144.235897,80.4451567 144.010541,79.6245014 143.772222,78.6074074 C143.5349,77.5893162 143.391311,76.8095442 143.34245,76.2680912 C142.603561,77.0069801 141.713105,77.5773504 140.671083,77.9792023 C139.628063,78.3820513 138.574074,78.5824786 137.50812,78.5824786 C135.849858,78.5824786 134.290313,78.1477208 132.830484,77.2782051 C131.369658,76.4076923 130.15812,75.2958689 129.19886,73.9417379 C128.238604,72.5876068 127.483761,71.102849 126.933333,69.4854701 C126.383903,67.8690883 126.108689,66.2975783 126.108689,64.7709402" id="Fill-26" fill="#FFFFFF" sketch:type="MSShapeGroup"></path>
                <path d="M154.32208,68.3656695 C154.434758,65.2316239 154.637179,62.6380342 154.929345,60.5868946 C154.99416,60.3735043 155.170655,60.1970085 155.463818,60.0574074 C155.753989,59.9178063 156.069088,59.8639601 156.410114,59.8968661 C156.878775,59.8968661 157.271652,60.0324786 157.588746,60.3027066 C157.904843,60.5739316 158.06339,60.9558405 158.06339,61.4474359 C157.883903,63.039886 157.793162,64.4189459 157.793162,65.5836182 C157.793162,69.6210826 158.382479,73.3554131 159.564103,76.7856125 C159.614957,76.9820513 159.638889,77.17151 159.638889,77.3519943 C159.638889,78.0081197 159.252991,78.4189459 158.479202,78.5824786 C158.194017,78.7141026 157.915812,78.7799145 157.646581,78.7799145 C157.533903,78.7799145 157.412251,78.762963 157.282621,78.730057 C156.894729,78.631339 156.619516,78.4019943 156.457977,78.0410256 C155.77792,76.7606838 155.244444,75.1941595 154.856553,73.3384615 C154.499573,71.6811966 154.32208,70.1874644 154.32208,68.8582621 L154.32208,68.3656695 L154.32208,68.3656695 Z M154.470655,53.6696581 C154.470655,53.134188 154.680057,52.6475783 155.099858,52.2088319 C155.503704,51.787037 155.957407,51.575641 156.457977,51.575641 L156.50584,51.575641 C157.271652,51.575641 157.846011,51.6933048 158.22792,51.9286325 C158.610826,52.1639601 158.802279,52.67151 158.802279,53.4502849 C158.77037,54.1163818 158.465242,54.725641 157.887892,55.2770655 C157.326496,55.8135328 156.700285,56.072792 156.010256,56.0558405 L155.962393,56.0558405 C155.447863,56.0079772 155.062963,55.7397436 154.806695,55.2521368 C154.582336,54.8143875 154.470655,54.3517094 154.470655,53.8650997 L154.470655,53.6696581 L154.470655,53.6696581 Z" id="Fill-27" fill="#FFFFFF" sketch:type="MSShapeGroup"></path>
                <path d="M160.894302,62.0636752 C160.894302,61.6698006 161.029915,61.3327635 161.30114,61.0535613 C161.571368,60.7753561 161.978205,60.5579772 162.518661,60.4014245 C163.061111,60.2458689 163.578632,60.1311966 164.070228,60.0574074 C164.562821,59.9826211 165.169088,59.9128205 165.892023,59.8480057 C167.335897,59.6675214 168.074786,59.5279202 168.107692,59.4292023 C167.977066,58.7242165 167.912251,57.5336182 167.912251,55.8594017 C167.912251,54.3207977 167.981054,52.7622507 168.120655,51.1827635 C168.260256,49.6032764 168.497578,48.0078348 168.833618,46.3954416 C169.168661,44.7830484 169.582479,43.3631054 170.073077,42.1356125 C170.564672,40.9081197 171.203846,39.9179487 171.990598,39.1650997 C172.726496,38.4611111 173.537179,38.1091168 174.42265,38.1091168 L174.596154,38.1091168 C175.92735,38.1420228 177.171795,38.8190883 178.331481,40.1413105 C179.490171,41.4635328 180.366667,42.9562678 180.957977,44.62151 C181.500427,46.2049858 181.77265,47.6209402 181.77265,48.8673789 L181.77265,49.0887464 C181.738746,49.9094017 181.538319,50.5705128 181.169373,51.0710826 C180.800427,51.5716524 180.327778,51.8219373 179.753419,51.8219373 C178.670513,51.8219373 178.071225,51.1 177.955556,49.6551282 C177.906695,48.7696581 177.814957,47.937037 177.68433,47.1562678 C177.551709,46.3774929 177.379202,45.6306268 177.165812,44.9166667 C176.951425,44.2027066 176.667236,43.6363248 176.312251,43.2175214 C175.959259,42.7987179 175.558405,42.5903134 175.113675,42.5903134 C174.405698,42.5903134 173.770513,43.3611111 173.211111,44.9037037 C172.650712,46.4472934 172.238889,48.2930199 171.975641,50.4428775 C171.712393,52.5937322 171.579772,54.7675214 171.579772,56.9672365 C171.579772,57.9364672 171.62963,58.6574074 171.728348,59.1340456 C174.380769,58.9695157 176.301282,58.7641026 177.486895,58.5178063 L177.759117,58.5178063 C178.217806,58.5178063 178.637607,58.6165242 179.01453,58.812963 C179.457265,59.0582621 179.621795,59.4022792 179.507123,59.8440171 C179.424359,60.2049858 178.963675,60.5410256 178.124074,60.8511396 C177.284473,61.1622507 176.21453,61.4893162 174.914245,61.8333333 C173.61396,62.1773504 172.713533,62.4804843 172.211966,62.7417379 C172.274786,63.6581197 172.393447,65.3951567 172.567949,67.9548433 C172.74245,70.5145299 172.889031,72.6574074 173.006695,74.3824786 C173.124359,76.108547 173.135328,77.8595442 173.038604,79.6364672 C173.038604,80.130057 172.849145,80.5747863 172.470228,80.9696581 C172.157123,81.3146724 171.820085,81.4881766 171.457123,81.4881766 C171.392308,81.4881766 171.32849,81.4792023 171.263675,81.4632479 C170.760114,81.4632479 170.296439,81.2368946 169.874644,80.7861823 C169.452849,80.3344729 169.217521,79.8378917 169.168661,79.2964387 C168.921368,75.9819088 168.601282,70.6720798 168.207407,63.3679487 C166.318803,63.8106838 164.554843,64.0330484 162.913533,64.0330484 C162.306268,64.0330484 161.817664,63.8475783 161.448718,63.4786325 C161.079772,63.1096866 160.894302,62.6380342 160.894302,62.0636752" id="Fill-28" fill="#FFFFFF" sketch:type="MSShapeGroup"></path>
                <path d="M176.946439,59.67151 L176.946439,59.4292023 C176.946439,58.9206553 177.070085,58.4689459 177.316382,58.0750712 C177.610541,57.6153846 178.021368,57.3770655 178.546866,57.3611111 C178.842023,57.3611111 179.108262,57.4109687 179.34359,57.5106838 C179.579915,57.6103989 179.837179,57.7320513 180.114387,57.8746439 C180.392593,58.0172365 180.638889,58.1239316 180.851282,58.1957265 C181.129487,58.2804843 181.400712,58.3801994 181.665954,58.4918803 C181.932194,58.6045584 182.241311,58.694302 182.594302,58.7611111 C182.949288,58.8289174 183.232479,58.8837607 183.445869,58.9246439 C183.658262,58.9655271 183.959402,59.0024217 184.344302,59.0353276 C184.730199,59.0682336 185.000427,59.0931624 185.15698,59.1091168 C185.312536,59.1260684 185.61567,59.1460114 186.068376,59.1709402 C186.519088,59.1948718 186.801282,59.215812 186.916952,59.2317664 C186.884046,58.7561254 186.868091,57.9025641 186.868091,56.6720798 C186.868091,52.5688034 186.933903,49.7049858 187.06453,48.0796296 C187.081481,47.718661 187.235043,47.4274929 187.523219,47.2061254 C187.811396,46.9847578 188.147436,46.8571225 188.531339,46.8242165 L188.63604,46.8242165 C189.527493,46.8242165 190.059972,47.481339 190.233476,48.7935897 C190.304274,49.9433048 190.339174,50.9354701 190.339174,51.7730769 L190.290313,56.548433 C190.290313,57.7958689 190.305271,58.707265 190.339174,59.2816239 L190.916524,59.2816239 C191.081054,59.2816239 191.30641,59.2776353 191.59359,59.268661 C191.879772,59.2616809 192.1849,59.2487179 192.503989,59.2317664 C192.825071,59.215812 193.161111,59.1988604 193.514103,59.182906 C193.866097,59.1669516 194.166239,59.15 194.412536,59.1340456 C194.789459,59.0682336 195.216239,59.0353276 195.692877,59.0353276 C195.988034,59.0193732 196.299145,59.0273504 196.628205,59.0602564 C197.480769,59.1260684 197.916524,59.3883191 197.932479,59.8480057 C197.932479,61.045584 195.522365,61.9320513 190.703134,62.5064103 C190.762963,63.2403134 190.862678,64.3431624 191.000285,65.812963 C191.136895,67.2817664 191.213675,68.1064103 191.231624,68.2858974 C191.591595,72.3014245 192.126068,75.5361823 192.831054,77.9881766 C192.97963,78.3012821 192.918803,78.5974359 192.646581,78.8766382 C192.376353,79.1568376 192.032336,79.2964387 191.612536,79.2964387 C191.194729,79.2964387 190.793875,79.2106838 190.410969,79.0381766 C190.02906,78.8656695 189.709972,78.6074074 189.454701,78.2623932 C189.200427,77.9183761 188.981054,77.5693732 188.798575,77.2163818 C188.617094,76.8633903 188.462536,76.4366097 188.333903,75.9360399 C188.207265,75.4354701 188.106553,75.0126781 188.033761,74.668661 C187.960969,74.3236467 187.906125,73.9058405 187.870228,73.414245 C187.833333,72.9226496 187.808405,72.595584 187.796439,72.4320513 L187.06453,62.6051282 C187.048575,62.6051282 186.765385,62.6001425 186.215954,62.5921652 C185.666524,62.5821937 185.334473,62.5742165 185.220798,62.564245 C185.105128,62.5562678 184.785043,62.5423077 184.260541,62.524359 C183.73604,62.5064103 183.370085,62.4884615 183.16567,62.4705128 C182.961254,62.4525641 182.628205,62.425641 182.169516,62.3897436 C181.710826,62.3538462 181.357835,62.3089744 181.109544,62.2551282 C180.862251,62.2022792 180.438462,62.1105413 179.839174,61.9819088 C179.240883,61.8522792 178.939744,61.7884615 178.939744,61.7884615 C178.940741,61.7884615 178.762251,61.7296296 178.408262,61.612963 C178.012393,61.4673789 177.678348,61.2041311 177.405128,60.8242165 C177.131909,60.444302 176.979345,60.0603989 176.946439,59.67151" id="Fill-29" fill="#FFFFFF" sketch:type="MSShapeGroup"></path>
                <path d="M211.70812,71.22151 C211.691168,70.8934473 211.683191,70.5404558 211.683191,70.1635328 C211.667236,69.194302 211.70812,68.0296296 211.80584,66.6665242 C211.936467,64.762963 212.198718,62.6091168 212.591595,60.2049858 C212.984473,57.8008547 213.481054,55.5482906 214.079345,53.4462963 C214.677635,51.3462963 215.489316,49.5653846 216.51339,48.1045584 C217.537464,46.6437322 218.681197,45.8809117 219.94359,45.8150997 L219.99245,45.8150997 C220.922792,45.8150997 221.896011,46.3834758 222.909117,47.5202279 C223.922222,48.6569801 224.795726,50.0290598 225.531624,51.6374644 C226.266524,53.2448718 226.874786,54.877208 227.35641,56.5344729 C227.839031,58.1907407 228.096296,59.5548433 228.129202,60.6267806 L228.129202,60.7972934 C228.14416,61.3826211 228.00755,61.8692308 227.715385,62.2581197 C227.391311,62.6809117 226.913675,62.8923077 226.281481,62.8923077 C225.860684,62.9421652 225.462821,62.8673789 225.090883,62.6679487 C224.717949,62.4685185 224.458689,62.1683761 224.313105,61.7695157 C224.16453,60.8710826 224.016952,60.0105413 223.868376,59.1868946 C223.719801,58.3622507 223.50641,57.4019943 223.226211,56.3041311 C222.946011,55.2062678 222.657835,54.269943 222.361681,53.497151 C222.065527,52.7233618 221.70755,52.0622507 221.288746,51.5128205 C220.868946,50.9643875 220.437179,50.6981481 219.99245,50.7141026 C219.136895,50.7470085 218.392023,51.5547009 217.758832,53.134188 C217.123647,54.7156695 216.667949,56.5833333 216.387749,58.7371795 C216.10755,60.8920228 215.902137,62.8424501 215.770513,64.5894587 C215.671795,65.9695157 215.622934,67.0683761 215.622934,67.8830484 C215.622934,68.0994302 215.629915,68.2908832 215.646866,68.4574074 C215.662821,69.022792 215.679772,69.438604 215.696724,69.7048433 C215.712678,69.9710826 215.75755,70.4327635 215.832336,71.089886 C215.905128,71.7470085 215.989886,72.2635328 216.088604,72.6374644 C216.187322,73.011396 216.342877,73.4650997 216.556268,73.9975783 C216.768661,74.530057 217.014957,74.9418803 217.293162,75.2330484 C217.572365,75.5242165 217.92735,75.7735043 218.362108,75.9819088 C218.795869,76.1893162 219.283476,76.2850427 219.823932,76.2680912 C220.561823,76.2351852 221.302707,76.1145299 222.047578,75.9061254 C222.793447,75.6987179 223.46453,75.4404558 224.062821,75.1323362 C224.661111,74.8252137 225.246439,74.5011396 225.819801,74.1591168 C226.393162,73.8190883 226.900712,73.5019943 227.343447,73.2118234 C227.786182,72.9206553 228.192023,72.6793447 228.560969,72.4878917 C228.929915,72.2964387 229.25,72.2047009 229.521225,72.2126781 C229.79245,72.2216524 230.000855,72.3502849 230.14943,72.5995726 C230.247151,72.7830484 230.297009,72.9994302 230.297009,73.2487179 C230.297009,73.512963 230.222222,73.8260684 230.075641,74.1890313 C229.796439,74.8501425 229.303846,75.527208 228.59886,76.2202279 C227.893875,76.9132479 227.070228,77.5693732 226.128917,78.188604 C225.188604,78.8078348 224.103704,79.3233618 222.877208,79.7361823 C221.649715,80.1480057 220.438177,80.3713675 219.244587,80.4042735 L219.023219,80.4042735 C217.877493,80.4202279 216.846439,80.182906 215.930057,79.6903134 C214.947863,79.165812 214.171083,78.4518519 213.597721,77.548433 C213.025356,76.6460114 212.57963,75.6608262 212.260541,74.5948718 C211.940456,73.5279202 211.75698,72.4031339 211.70812,71.22151" id="Fill-30" fill="#FFFFFF" sketch:type="MSShapeGroup"></path>
                <path d="M232.70812,68.751567 C232.806838,68.0465812 232.943447,67.2797721 233.115954,66.4511396 C233.287464,65.6235043 233.554701,64.6682336 233.916667,63.5853276 C234.278632,62.5034188 234.67849,61.5351852 235.113248,60.6826211 C235.549003,59.830057 236.09943,59.1041311 236.766524,58.5058405 C237.431624,57.9065527 238.134615,57.6074074 238.874501,57.6074074 C241.298575,57.6074074 243.182194,58.7152422 244.525356,60.9309117 C244.624074,61.0954416 244.907265,61.124359 245.374929,61.0176638 C245.842593,60.9119658 246.191595,60.9159544 246.42094,61.0306268 C246.96339,61.375641 247.233618,61.9430199 247.233618,62.7307692 C247.233618,63.0109687 247.191738,63.3849003 247.109972,63.8525641 C247.028205,64.3222222 246.988319,64.5894587 246.988319,64.6552707 C246.954416,65.1478632 246.937464,65.6245014 246.937464,66.0851852 C246.954416,67.4014245 247.077066,68.6009972 247.307407,69.6858974 C247.63547,71.1656695 248.201852,72.8757835 249.006553,74.8162393 C249.071368,75.045584 249.105271,75.2759259 249.105271,75.5052707 C249.120228,75.7346154 249.096296,75.9480057 249.030484,76.1454416 C248.932764,76.5722222 248.80114,76.8344729 248.63661,76.9331909 C248.341453,77.1306268 247.94359,77.2323362 247.44302,77.2413105 C246.941453,77.2492877 246.601425,77.1794872 246.42094,77.0319088 C245.682051,76.4405983 244.977066,75.5900285 244.303989,74.4811966 C243.630912,73.3723647 243.246011,72.4400285 243.146296,71.684188 C241.883903,74.1491453 241.211823,75.4643875 241.130057,75.6279202 C240.623504,76.3997151 239.994302,77.0648148 239.24245,77.6222222 C238.55641,78.1307692 237.829487,78.3850427 237.061681,78.3850427 L236.863248,78.3850427 C236.005698,78.2873219 235.271795,77.8555556 234.662536,77.0917379 C234.052279,76.3279202 233.611538,75.4165242 233.339316,74.3565527 C233.067094,73.2965812 232.881624,72.2824786 232.782906,71.3132479 C232.717094,70.6720798 232.683191,70.0807692 232.683191,69.5383191 C232.683191,69.260114 232.692165,68.9978632 232.70812,68.751567 L232.70812,68.751567 Z M236.264957,68.6388889 C236.125356,69.4695157 236.056553,70.2622507 236.056553,71.0180912 C236.056553,71.9394587 236.179202,72.7122507 236.424501,73.3374644 C236.668803,73.9457265 237.020798,74.2498575 237.47849,74.2498575 L237.52735,74.2498575 C238.065812,74.2498575 238.654131,73.711396 239.291311,72.6334758 C239.929487,71.5565527 240.46396,70.2492877 240.896724,68.7126781 C241.330484,67.1750712 241.545869,65.7740741 241.545869,64.5066952 L241.545869,62.9531339 C241.51396,62.5582621 241.32151,62.1434473 240.97151,61.7076923 C240.619516,61.2719373 240.255556,61.045584 239.87963,61.0296296 C238.671083,61.0296296 237.584188,63.0109687 236.619943,66.9736467 C236.522222,67.252849 236.403561,67.8082621 236.264957,68.6388889 L236.264957,68.6388889 Z" id="Fill-31" fill="#FFFFFF" sketch:type="MSShapeGroup"></path>
                <path d="M252.15755,69.2022792 C252.15755,64.492735 252.321083,61.6368946 252.650142,60.635755 C252.682051,60.4552707 252.837607,60.2249288 253.117806,59.9457265 C253.396011,59.6675214 253.716097,59.5279202 254.078063,59.5279202 C254.438034,59.5279202 254.734188,59.6306268 254.963533,59.8350427 C255.193875,60.0404558 255.354416,60.3565527 255.44416,60.7833333 C255.533903,61.210114 255.587749,61.5790598 255.603704,61.8911681 C255.620655,62.2032764 255.628632,62.6460114 255.628632,63.2203704 C255.628632,65.1408832 255.768234,66.9217949 256.046439,68.5631054 C257.360684,65.8548433 258.401709,63.9592593 259.173504,62.8753561 C261.078063,60.1840456 263.309687,58.8388889 265.87037,58.8388889 C267.396011,58.8388889 268.266524,59.2407407 268.479915,60.0444444 C268.561681,60.2578348 268.602564,60.4632479 268.602564,60.6606838 C268.602564,61.0047009 268.496866,61.3247863 268.282479,61.619943 C267.954416,62.0796296 267.436895,62.3588319 266.731909,62.4575499 C265.106553,62.6868946 263.716524,63.2612536 262.558832,64.1806268 C261.40114,65.1 260.339174,66.5109687 259.37094,68.4155271 C257.974929,71.3202279 256.85114,74.2737892 255.998575,77.2782051 C255.653561,78.0819088 255.095157,78.4837607 254.324359,78.4837607 C253.946439,78.4837607 253.660256,78.4309117 253.461823,78.3242165 C253.265385,78.2175214 253.117806,78.0081197 253.019088,77.6960114 C252.444729,75.7595442 252.15755,72.9286325 252.15755,69.2022792" id="Fill-32" fill="#FFFFFF" sketch:type="MSShapeGroup"></path>
                <path d="M269.63661,69.2770655 C269.718376,67.5200855 270.057407,65.8957265 270.651709,64.4019943 C271.245014,62.9092593 272.116524,61.6817664 273.264245,60.72151 C274.410969,59.7612536 275.718234,59.2816239 277.187037,59.2816239 C278.309829,59.2816239 279.611111,59.6396011 281.09188,60.3545584 C281.184615,59.097151 281.231481,57.8128205 281.231481,56.4995726 C281.231481,55.5143875 281.206553,54.4235043 281.157692,53.2249288 C281.107835,52.0273504 281.053989,51.034188 280.997151,50.2464387 C280.940313,49.4586895 280.865527,48.4326211 280.772792,47.1692308 C280.681054,45.9048433 280.620228,45.0851852 280.591311,44.707265 C280.591311,43.9853276 280.781766,43.4109687 281.163675,42.9831909 C281.544587,42.5574074 282.133903,42.3440171 282.92963,42.3440171 C283.481054,42.3599715 283.968661,42.6311966 284.390456,43.1576923 C284.779345,43.6512821 284.974786,44.1767806 284.974786,44.7361823 L284.974786,44.8598291 C285.105413,47.1612536 285.203134,51.7232194 285.269943,58.5467236 C285.269943,58.7940171 285.23604,59.7433048 285.171225,61.395584 C285.105413,63.0478632 285.072507,64.4578348 285.072507,65.6245014 C285.072507,72.3921652 286.147436,75.7924501 288.297293,75.8253561 C288.772934,75.8064103 289.356268,75.6678063 290.045299,75.4095442 C290.63661,75.1692308 291.104274,75.0575499 291.449288,75.0745014 L291.57094,75.0745014 C291.932906,75.0745014 292.212108,75.2460114 292.408547,75.5900285 C292.556125,75.8353276 292.621937,76.0975783 292.605983,76.3747863 C292.605983,76.4894587 292.597009,76.5961538 292.581054,76.6938746 C292.251994,77.5125356 291.678632,78.1098291 290.857977,78.485755 C290.037322,78.8626781 289.199715,79.0501425 288.346154,79.0501425 C286.640028,78.9524217 285.24302,78.485755 284.15812,77.6511396 C283.072222,76.8165242 282.453989,75.6219373 282.305413,74.0683761 C281.402991,75.2619658 280.344017,76.2262108 279.130484,76.9611111 C277.998718,77.6481481 276.841026,77.9921652 275.661396,77.9921652 L275.414103,77.9921652 C274.245442,77.9752137 273.254274,77.6920228 272.438604,77.1425926 C271.623932,76.5931624 271.02265,75.8662393 270.635755,74.9638177 C270.249858,74.061396 269.973647,73.15 269.809117,72.2306268 C269.677493,71.4757835 269.619658,70.6720798 269.63661,69.8185185 L269.63661,69.2770655 L269.63661,69.2770655 Z M273.107692,69.319943 C273.090741,69.5153846 273.090741,69.702849 273.107692,69.881339 C273.090741,70.9223647 273.281197,71.8497151 273.676068,72.6633903 C274.137749,73.6076923 274.889601,74.1361823 275.928632,74.2498575 C277.247863,74.2498575 278.430484,73.5498575 279.47849,72.1508547 C280.526496,70.7518519 281.07792,69.108547 281.132764,67.2209402 L281.132764,66.9527066 C281.132764,65.7491453 280.820655,64.8048433 280.195442,64.1217949 C279.536325,63.4058405 278.638889,63.039886 277.503134,63.0229345 L277.355556,63.0229345 C276.120085,63.039886 275.123932,63.6331909 274.367094,64.8048433 C273.576353,66.0413105 273.156553,67.5470085 273.107692,69.319943 L273.107692,69.319943 Z" id="Fill-33" fill="#FFFFFF" sketch:type="MSShapeGroup"></path>
            </g>
        </g>
    </g>
</svg>